<svg width="20" height="20" viewBox="0 0 20 20" fill="none" xmlns="http://www.w3.org/2000/svg">
<mask id="path-1-inside-1_1_11853" fill="white">
<path d="M10 20C15.5228 20 20 15.5228 20 10C20 4.47715 15.5228 0 10 0C4.47715 0 0 4.47715 0 10C0 15.5228 4.47715 20 10 20Z"/>
<path d="M7 10L9 12L13 8"/>
</mask>
<path d="M10 20C15.5228 20 20 15.5228 20 10C20 4.47715 15.5228 0 10 0C4.47715 0 0 4.47715 0 10C0 15.5228 4.47715 20 10 20Z" fill="#00D971"/>
<path d="M7 10L9 12L13 8" fill="#00D971"/>
<path d="M7.70711 9.29289C7.31658 8.90237 6.68342 8.90237 6.29289 9.29289C5.90237 9.68342 5.90237 10.3166 6.29289 10.7071L7.70711 9.29289ZM9 12L8.29289 12.7071C8.68342 13.0976 9.31658 13.0976 9.70711 12.7071L9 12ZM13.7071 8.70711C14.0976 8.31658 14.0976 7.68342 13.7071 7.29289C13.3166 6.90237 12.6834 6.90237 12.2929 7.29289L13.7071 8.70711ZM19 10C19 14.9706 14.9706 19 10 19V21C16.0751 21 21 16.0751 21 10H19ZM10 19C5.02944 19 1 14.9706 1 10H-1C-1 16.0751 3.92487 21 10 21V19ZM1 10C1 5.02944 5.02944 1 10 1V-1C3.92487 -1 -1 3.92487 -1 10H1ZM10 1C14.9706 1 19 5.02944 19 10H21C21 3.92487 16.0751 -1 10 -1V1ZM6.29289 10.7071L8.29289 12.7071L9.70711 11.2929L7.70711 9.29289L6.29289 10.7071ZM9.70711 12.7071L13.7071 8.70711L12.2929 7.29289L8.29289 11.2929L9.70711 12.7071Z" fill="#11141D" mask="url(#path-1-inside-1_1_11853)"/>
</svg>
