<svg id="id" width="18" height="18" viewBox="0 0 18 18" fill="none" xmlns="http://www.w3.org/2000/svg">
<mask id="path-1-inside-1_389_166" fill="white">
<path d="M8.99984 17.3333C13.6022 17.3333 17.3332 13.6023 17.3332 8.99996C17.3332 4.39759 13.6022 0.666626 8.99984 0.666626C4.39746 0.666626 0.666504 4.39759 0.666504 8.99996C0.666504 13.6023 4.39746 17.3333 8.99984 17.3333Z"/>
<path d="M6.49984 8.99996L8.1665 10.6666L11.4998 7.33329"/>
</mask>
<path d="M8.99984 17.3333C13.6022 17.3333 17.3332 13.6023 17.3332 8.99996C17.3332 4.39759 13.6022 0.666626 8.99984 0.666626C4.39746 0.666626 0.666504 4.39759 0.666504 8.99996C0.666504 13.6023 4.39746 17.3333 8.99984 17.3333Z" fill="#00D971"/>
<path d="M6.49984 8.99996L8.1665 10.6666L11.4998 7.33329" fill="#00D971"/>
<path d="M7.20694 8.29285C6.81642 7.90233 6.18326 7.90233 5.79273 8.29285C5.40221 8.68338 5.40221 9.31654 5.79273 9.70707L7.20694 8.29285ZM8.1665 10.6666L7.4594 11.3737C7.84992 11.7643 8.48309 11.7643 8.87361 11.3737L8.1665 10.6666ZM12.2069 8.0404C12.5975 7.64988 12.5975 7.01671 12.2069 6.62619C11.8164 6.23566 11.1833 6.23566 10.7927 6.62619L12.2069 8.0404ZM16.3332 8.99996C16.3332 13.05 13.0499 16.3333 8.99984 16.3333V18.3333C14.1545 18.3333 18.3332 14.1546 18.3332 8.99996H16.3332ZM8.99984 16.3333C4.94975 16.3333 1.6665 13.05 1.6665 8.99996H-0.333496C-0.333496 14.1546 3.84518 18.3333 8.99984 18.3333V16.3333ZM1.6665 8.99996C1.6665 4.94987 4.94975 1.66663 8.99984 1.66663V-0.333374C3.84518 -0.333374 -0.333496 3.8453 -0.333496 8.99996H1.6665ZM8.99984 1.66663C13.0499 1.66663 16.3332 4.94987 16.3332 8.99996H18.3332C18.3332 3.8453 14.1545 -0.333374 8.99984 -0.333374V1.66663ZM5.79273 9.70707L7.4594 11.3737L8.87361 9.95952L7.20694 8.29285L5.79273 9.70707ZM8.87361 11.3737L12.2069 8.0404L10.7927 6.62619L7.4594 9.95952L8.87361 11.3737Z" fill="#11141D" mask="url(#path-1-inside-1_389_166)"/>
</svg>
