<svg width="18" height="18" viewBox="0 0 18 18" fill="none" xmlns="http://www.w3.org/2000/svg">
<path d="M8.99984 17.3333C13.6022 17.3333 17.3332 13.6023 17.3332 8.99996C17.3332 4.39759 13.6022 0.666626 8.99984 0.666626C4.39746 0.666626 0.666504 4.39759 0.666504 8.99996C0.666504 13.6023 4.39746 17.3333 8.99984 17.3333Z" fill="#FF5F5F"/>
<path d="M11.4998 6.49996L6.49984 11.5L11.4998 6.49996Z" fill="#FF5F5F"/>
<path d="M6.49984 6.49996L11.4998 11.5L6.49984 6.49996Z" fill="#FF5F5F"/>
<path d="M11.4998 6.49996L6.49984 11.5M6.49984 6.49996L11.4998 11.5M17.3332 8.99996C17.3332 13.6023 13.6022 17.3333 8.99984 17.3333C4.39746 17.3333 0.666504 13.6023 0.666504 8.99996C0.666504 4.39759 4.39746 0.666626 8.99984 0.666626C13.6022 0.666626 17.3332 4.39759 17.3332 8.99996Z" stroke="#11141D" stroke-linecap="round" stroke-linejoin="round"/>
</svg>
