<svg id="id" width="24" height="24" viewBox="0 0 24 24" fill="none" xmlns="http://www.w3.org/2000/svg">
<path d="M16 9.7632C19.1216 9.7632 21.728 10.9232 21.88 12.612L21.8864 12.7672V16.06C21.8864 17.8328 19.216 19.0648 16 19.0648C15.5776 19.0648 15.164 19.0432 14.7648 19.0024V17.9256C15.1576 17.9704 15.572 17.9952 16 17.9952C18.6056 17.9952 20.6752 17.0808 20.8096 16.156L20.8176 16.06V14.536C19.7472 15.3064 17.9776 15.772 16 15.772C15.5768 15.772 15.1632 15.7504 14.764 15.7096V9.8256C15.164 9.784 15.5776 9.7632 16 9.7632ZM7.76799 4C10.8888 4 13.496 5.1608 13.6464 6.8496L13.6536 7.004V16.884C13.6536 18.656 10.9832 19.888 7.76799 19.888C4.64639 19.888 2.03999 18.7272 1.88799 17.0384L1.88159 16.884V6.988C1.89759 5.2248 4.56159 4 7.76799 4ZM12.5856 15.3592C11.5144 16.1296 9.74399 16.5952 7.76799 16.5952C5.79199 16.5952 4.02159 16.1296 2.95039 15.36V16.884C2.95039 17.8392 5.07279 18.8184 7.76799 18.8184C10.3728 18.8184 12.4424 17.904 12.5776 16.9792L12.584 16.8832L12.5856 15.3592ZM12.5856 12.0656C11.5144 12.836 9.74399 13.3016 7.76799 13.3016C5.79199 13.3016 4.02159 12.8368 2.95039 12.0672V13.5904C2.95039 14.5464 5.07279 15.5264 7.76799 15.5264C10.3728 15.5264 12.4424 14.6104 12.5776 13.6864L12.584 13.5904L12.5856 12.0656ZM3.27199 10.952L3.38239 11.056L3.54639 11.1856L3.70239 11.292L3.85679 11.3848L4.01279 11.4688L4.24799 11.5808L4.42799 11.6568L4.64959 11.7408L4.90399 11.8264L5.15759 11.9008L5.52159 11.992L5.77279 12.0456L6.21679 12.1216L6.48319 12.1576L6.90879 12.2L7.15679 12.216C7.35679 12.228 7.55999 12.2336 7.76799 12.2336L8.06559 12.2296L8.41759 12.2136L8.74479 12.1896L9.09999 12.1512L9.30639 12.1232L9.62879 12.0704L9.89279 12.0192L10.1592 11.9576L10.3864 11.8984L10.612 11.8328L10.8968 11.7368L11.0728 11.6712L11.3224 11.5656L11.564 11.4472L11.7344 11.3528L11.912 11.2408L12.012 11.1688L12.1048 11.0968C12.3768 10.8736 12.5424 10.6344 12.5768 10.3936L12.5848 10.2976L12.5856 8.7736C11.5144 9.544 9.74399 10.0096 7.76799 10.0096C5.79199 10.0096 4.02159 9.544 2.95039 8.7744V10.2984C2.95039 10.5192 3.06399 10.7408 3.27199 10.952Z" fill="currentColor"/>
</svg>
