<svg id="id" width="22" height="22" viewBox="0 0 22 22" fill="none" xmlns="http://www.w3.org/2000/svg">
<path d="M10.8751 17.0223L10.87 17.1035L10.8628 17.1499C10.696 17.9786 8.92848 18.85 6.44463 18.85C3.9151 18.85 2.1287 17.9459 2.01995 17.1035L2.01415 17.0223V15.9022C2.77178 16.6816 4.46973 17.2253 6.4439 17.2253C7.74818 17.2253 8.93065 16.9889 9.8021 16.604L9.97973 16.5213L10.1849 16.414L10.3451 16.3198L10.5003 16.2183L10.6272 16.124C10.6765 16.0856 10.7229 16.0464 10.7664 16.0073L10.8751 15.9022V17.0223ZM12.5129 2.90002C16.4982 2.90002 19.7332 6.13497 19.7332 10.1203C19.7332 14.1056 16.4982 17.3406 12.5122 17.3406C12.1555 17.3406 11.8038 17.3145 11.4609 17.2645L11.4783 17.1441L11.4841 17.0223V10.3429C10.6721 9.11037 8.99228 8.49485 6.44535 8.49485C6.11185 8.49485 5.78415 8.51007 5.4666 8.5398C6.18725 5.31355 9.06913 2.90002 12.5122 2.90002H12.5129ZM10.8751 14.9916C10.8751 15.0481 10.8671 15.1039 10.8519 15.1605L10.8186 15.2598L10.77 15.3584L10.7243 15.4331L10.6424 15.5411L10.567 15.6245L10.4785 15.7093L10.3843 15.7891L10.2378 15.8978L10.1472 15.9587L10.029 16.0312L9.80863 16.1494L9.54763 16.269L9.32868 16.356L9.04303 16.4532C8.3318 16.6772 7.44585 16.8193 6.4439 16.8193C3.91438 16.8193 2.12798 15.9152 2.01923 15.0735L2.01343 14.9916V13.8722C2.77105 14.6515 4.469 15.1946 6.44318 15.1946C6.87093 15.1946 7.28563 15.1692 7.68003 15.1214L8.0447 15.0699C8.41663 15.0097 8.76825 14.9299 9.09233 14.8328L9.41495 14.7269L9.602 14.6566L9.7992 14.5747L9.9993 14.4804L10.1878 14.3818L10.2639 14.3383L10.4234 14.239L10.5641 14.1404L10.6308 14.0897L10.7656 13.9773L10.8744 13.8722V14.9916H10.8751ZM10.8751 12.9616C10.8748 13.0264 10.865 13.0909 10.8461 13.153C10.8354 13.1881 10.8223 13.2225 10.807 13.2559C10.7519 13.3777 10.662 13.4995 10.5431 13.6184C10.5032 13.6583 10.459 13.6982 10.4111 13.7373L10.2835 13.8359L10.1102 13.9519L10.0058 14.0135L9.82675 14.11L9.65638 14.1912L9.30113 14.3362L9.04448 14.4232L8.7697 14.5029L8.6218 14.5406L8.3318 14.6059L8.01135 14.6653L7.77065 14.7016L7.48283 14.7357L6.99345 14.7741C6.81438 14.7835 6.63095 14.7886 6.4439 14.7886C3.91438 14.7886 2.12798 13.8852 2.01923 13.0428L2.01343 12.9616V11.84C2.77105 12.6194 4.469 13.1631 6.44318 13.1631C8.32963 13.1631 9.96233 12.6687 10.7656 11.9451L10.8744 11.84V12.9616H10.8751ZM13.0298 5.81742H11.9931V10.2907L15.1577 13.4553L15.8856 12.7201L13.0298 9.8651V5.81742ZM6.68605 12.7549L6.4439 12.7578C6.31848 12.7578 6.1945 12.7557 6.07343 12.7506L5.78053 12.7361C3.5294 12.5911 2.01343 11.7197 2.01343 10.9309C2.01343 10.2276 3.21475 9.46055 5.06568 9.19737L5.35423 9.16112L5.65148 9.13357L5.99513 9.11182L6.18725 9.10602C6.27208 9.10385 6.35763 9.10312 6.4439 9.10312C9.05535 9.10312 10.8751 10.0659 10.8751 10.9301C10.8751 11.7675 9.167 12.6977 6.68605 12.7549Z" fill="currentColor"/>
</svg>
