<svg id="id" width="20" height="20" viewBox="0 0 20 20" fill="none" xmlns="http://www.w3.org/2000/svg">
<path d="M17.0792 0.860352C17.328 0.860352 17.5343 1.03936 17.5768 1.27526L17.5852 1.36628V18.5589C17.5852 18.8077 17.4062 19.014 17.1703 19.0565L17.0792 19.0648H2.92073C2.80235 19.0648 2.68773 19.0232 2.59681 18.9474C2.50589 18.8716 2.44444 18.7663 2.42314 18.6499L2.41479 18.5589V1.36628C2.41479 1.11749 2.59381 0.911172 2.8297 0.868695L2.92073 0.860352H17.0792ZM16.5741 1.87146H3.4259V18.0537H16.5741V1.87146ZM9.99998 13.5026V15.0196H4.94294V13.5026H9.99998ZM15.057 10.4685V11.9855H4.94294V10.4685H15.057ZM15.057 4.40036V8.95147H4.94294V4.40036H15.057Z" fill="currentColor"/>
</svg>
