<svg id="id" width="24" height="24" viewBox="0 0 24 24" fill="none" xmlns="http://www.w3.org/2000/svg">
<path d="M12.032 0.434571C12.1056 0.388143 12.1892 0.359651 12.2758 0.351388C12.3625 0.343125 12.4499 0.355322 12.531 0.386997L12.6252 0.435542L21.9498 6.30951L22.0051 6.35903L22.0575 6.42019L22.0944 6.47845L22.1265 6.55029L22.1566 6.66777L22.1624 6.7435L22.1546 6.84059L22.1391 6.90661L22.1012 7.00176L22.0634 7.0639L22.0138 7.12507L21.9818 7.15711L21.9391 7.19206H21.9342L21.9022 7.2173L12.8835 12.8951L12.8844 21.7071L21.0517 16.804L21.0721 10.9145L21.0818 10.8155C21.1058 10.6877 21.1739 10.5723 21.2741 10.4895C21.3743 10.4066 21.5004 10.3615 21.6305 10.362C21.7605 10.3624 21.8863 10.4084 21.986 10.492C22.0856 10.5755 22.1529 10.6914 22.176 10.8194L22.1847 10.9194L22.1624 17.1234L22.1537 17.2196C22.1311 17.3448 22.0663 17.4586 21.9702 17.5419L21.8925 17.5982L12.6145 23.1673L12.5271 23.21C12.4505 23.2391 12.3684 23.251 12.2867 23.2447C12.205 23.2385 12.1256 23.2143 12.0543 23.1739C11.983 23.1334 11.9215 23.0778 11.8742 23.0109C11.8269 22.9439 11.7949 22.8674 11.7805 22.7867L11.7728 22.6896L11.7708 12.8951L2.755 7.2173C2.6832 7.17214 2.62267 7.11116 2.57805 7.03902C2.53344 6.96688 2.50591 6.88549 2.49757 6.80107C2.48923 6.71666 2.5003 6.63146 2.52995 6.55198C2.55959 6.4725 2.60701 6.40086 2.66859 6.34252L2.755 6.27553L12.032 0.434571ZM12.3291 1.56276L4.09582 6.74739L12.1126 11.7961L20.5439 6.73574L12.3301 1.56276H12.3291Z" fill="currentColor"/>
<path d="M2.49487 6.74739V17.1215C2.49487 17.3166 2.59779 17.4982 2.76478 17.5982L12.0427 23.1673C12.1271 23.2177 12.2234 23.2449 12.3217 23.2461C12.4199 23.2472 12.5168 23.2223 12.6023 23.1739C12.6879 23.1254 12.7591 23.0552 12.8086 22.9703C12.8582 22.8854 12.8844 22.7889 12.8845 22.6906V12.3155C12.8845 12.2195 12.8596 12.1252 12.8123 12.0416C12.765 11.9581 12.6969 11.8882 12.6146 11.8388L3.33762 6.2697C3.25322 6.21902 3.15688 6.19164 3.05844 6.19035C2.96 6.18907 2.86298 6.21394 2.77729 6.26241C2.6916 6.31088 2.62031 6.38123 2.57069 6.46626C2.52108 6.55129 2.49491 6.64797 2.49487 6.74642V6.74739ZM19.2371 12.3631V15.2583C19.2371 15.3077 19.224 15.3562 19.1991 15.3989C19.1742 15.4415 19.1384 15.4768 19.0954 15.5011L15.7584 17.3885C15.7161 17.4125 15.6682 17.4249 15.6195 17.4246C15.5709 17.4242 15.5232 17.4111 15.4812 17.3865C15.4392 17.362 15.4044 17.3268 15.3803 17.2845C15.3562 17.2423 15.3436 17.1944 15.3438 17.1458V14.4738C15.3438 14.3777 15.3924 14.2894 15.4729 14.2389L18.8099 12.1281C18.9944 12.0116 19.2371 12.1437 19.2371 12.3631Z" fill="currentColor"/>
</svg>
