<svg id="id" width="21" height="22" viewBox="0 0 21 22" fill="none" xmlns="http://www.w3.org/2000/svg">
<path d="M20.5 1H0.5V21H20.5V1ZM8.396 4.848C8.396 4.388 8.767 4 9.245 4C12.409 4 14.972 6.563 14.972 9.71C14.9644 9.92999 14.8717 10.1385 14.7134 10.2914C14.5551 10.4444 14.3436 10.5299 14.1235 10.5299C13.9034 10.5299 13.6919 10.4444 13.5336 10.2914C13.3753 10.1385 13.2826 9.92999 13.275 9.71C13.2751 9.18074 13.171 8.65663 12.9685 8.16763C12.766 7.67863 12.4692 7.23431 12.0949 6.86007C11.7207 6.48582 11.2764 6.18898 10.7874 5.9865C10.2984 5.78402 9.77426 5.67987 9.245 5.68C9.13439 5.68199 9.02449 5.66195 8.9217 5.62106C8.81891 5.58016 8.72528 5.51923 8.64627 5.4418C8.56725 5.36436 8.50443 5.27199 8.46147 5.17004C8.4185 5.0681 8.39625 4.95863 8.396 4.848ZM16.651 8.861C17.111 8.861 17.5 9.232 17.5 9.71C17.5 12.856 14.937 15.42 11.773 15.42C11.5478 15.42 11.3319 15.3306 11.1727 15.1713C11.0134 15.0121 10.924 14.7962 10.924 14.571C10.924 14.3458 11.0134 14.1299 11.1727 13.9707C11.3319 13.8114 11.5478 13.722 11.773 13.722C12.3023 13.7221 12.8264 13.618 13.3154 13.4155C13.8044 13.213 14.2487 12.9162 14.6229 12.5419C14.9972 12.1677 15.294 11.7234 15.4965 11.2344C15.699 10.7454 15.8031 10.2213 15.803 9.692C15.803 9.25 16.192 8.862 16.651 8.862V8.861ZM12.621 17.151C12.621 17.611 12.251 18 11.773 18C8.609 18 6.046 15.437 6.046 12.29C6.05355 12.07 6.14626 11.8615 6.30456 11.7086C6.46286 11.5556 6.67438 11.4701 6.8945 11.4701C7.11462 11.4701 7.32614 11.5556 7.48444 11.7086C7.64274 11.8615 7.73545 12.07 7.743 12.29C7.74287 12.8193 7.84702 13.3434 8.0495 13.8324C8.25198 14.3214 8.54882 14.7657 8.92307 15.1399C9.29731 15.5142 9.74163 15.811 10.2306 16.0135C10.7196 16.216 11.2437 16.3201 11.773 16.32C12.251 16.32 12.622 16.692 12.622 17.151H12.621ZM4.35 13.14C4.23834 13.1401 4.12775 13.1182 4.02456 13.0756C3.92138 13.0329 3.82762 12.9703 3.74867 12.8913C3.66971 12.8124 3.6071 12.7186 3.56443 12.6154C3.52176 12.5122 3.49987 12.4017 3.5 12.29C3.5 9.144 6.063 6.58 9.227 6.58C9.45217 6.58 9.66811 6.66945 9.82733 6.82867C9.98655 6.98788 10.076 7.20383 10.076 7.429C10.076 7.65417 9.98655 7.87012 9.82733 8.02933C9.66811 8.18855 9.45217 8.278 9.227 8.278C8.69774 8.27787 8.17363 8.38202 7.68463 8.5845C7.19563 8.78698 6.75131 9.08382 6.37707 9.45807C6.00282 9.83231 5.70598 10.2766 5.5035 10.7656C5.30102 11.2546 5.19687 11.7787 5.197 12.308C5.179 12.75 4.808 13.138 4.349 13.138L4.35 13.14Z" fill="currentColor"/>
</svg>
