<svg width="45" height="45" viewBox="0 0 45 45" fill="none" xmlns="http://www.w3.org/2000/svg">
<rect x="0.5" y="0.5" width="44" height="44" rx="3.5" stroke="#FF2CA8"/>
<path d="M19.3172 18.9691C19.412 18.9725 19.5065 18.9567 19.5952 18.9228C19.6838 18.8888 19.7646 18.8374 19.8329 18.7715C19.9012 18.7056 19.9555 18.6266 19.9926 18.5393C20.0297 18.4519 20.0488 18.358 20.0488 18.2631C20.0488 18.1682 20.0297 18.0743 19.9926 17.9869C19.9555 17.8996 19.9012 17.8206 19.8329 17.7547C19.7646 17.6888 19.6838 17.6374 19.5952 17.6034C19.5065 17.5695 19.412 17.5537 19.3172 17.5571H15.7579C15.575 17.5636 15.4018 17.6409 15.2747 17.7725C15.1477 17.9042 15.0767 18.0801 15.0767 18.2631C15.0767 18.4461 15.1477 18.622 15.2747 18.7536C15.4018 18.8853 15.575 18.9626 15.7579 18.9691H19.3172ZM24.9823 24.5363C25.0636 24.5846 25.1535 24.6163 25.2471 24.6298C25.3406 24.6433 25.4359 24.6382 25.5275 24.6148C25.619 24.5915 25.7051 24.5503 25.7808 24.4936C25.8564 24.4369 25.9201 24.3659 25.9683 24.2846L29.3208 18.6437C29.3857 18.5347 29.4205 18.4104 29.4218 18.2835C29.4231 18.1566 29.3908 18.0316 29.3282 17.9213C29.2656 17.8109 29.1749 17.7191 29.0653 17.6551C28.9557 17.5912 28.8311 17.5573 28.7042 17.5571H21.9974C21.8703 17.557 21.7455 17.5906 21.6357 17.6544C21.5259 17.7183 21.4349 17.8101 21.372 17.9205C21.3092 18.0309 21.2768 18.156 21.278 18.2831C21.2792 18.4101 21.3141 18.5346 21.379 18.6437L24.7315 24.2855C24.7931 24.3888 24.8797 24.475 24.9832 24.5363H24.9823ZM19.3172 23.206C19.4128 23.2109 19.5085 23.1962 19.5983 23.1629C19.6881 23.1297 19.7702 23.0785 19.8396 23.0125C19.909 22.9465 19.9642 22.8671 20.002 22.779C20.0398 22.691 20.0593 22.5963 20.0593 22.5005C20.0593 22.4047 20.0398 22.3099 20.002 22.2219C19.9642 22.1339 19.909 22.0545 19.8396 21.9885C19.7702 21.9225 19.6881 21.8713 19.5983 21.838C19.5085 21.8048 19.4128 21.7901 19.3172 21.7949H15.7579C15.577 21.8041 15.4064 21.8824 15.2816 22.0137C15.1567 22.145 15.0871 22.3193 15.0871 22.5005C15.0871 22.6817 15.1567 22.856 15.2816 22.9873C15.4064 23.1186 15.577 23.1969 15.7579 23.206H19.3172ZM28.5505 27.4439C28.7334 27.4374 28.9066 27.3601 29.0337 27.2284C29.1608 27.0967 29.2318 26.9209 29.2318 26.7379C29.2318 26.5549 29.1608 26.379 29.0337 26.2473C28.9066 26.1156 28.7334 26.0384 28.5505 26.0319H15.7579C15.575 26.0384 15.4018 26.1156 15.2747 26.2473C15.1477 26.379 15.0767 26.5549 15.0767 26.7379C15.0767 26.9209 15.1477 27.0967 15.2747 27.2284C15.4018 27.3601 15.575 27.4374 15.7579 27.4439H28.5505Z" fill="#FF2CA8"/>
</svg>
