<svg id="id" xmlns="http://www.w3.org/2000/svg" viewBox="0 0 19 13" fill="none">
<path d="M6.31717 2.9691C6.412 2.97249 6.50655 2.95673 6.59516 2.92278C6.68377 2.88882 6.76463 2.83736 6.83292 2.77147C6.9012 2.70557 6.95551 2.6266 6.99261 2.53926C7.0297 2.45191 7.04882 2.35799 7.04882 2.2631C7.04882 2.1682 7.0297 2.07428 6.99261 1.98694C6.95551 1.8996 6.9012 1.82062 6.83292 1.75473C6.76463 1.68883 6.68377 1.63737 6.59516 1.60342C6.50655 1.56946 6.412 1.55371 6.31717 1.55709H2.75792C2.57504 1.56362 2.40182 1.64086 2.27475 1.77255C2.14767 1.90423 2.07666 2.0801 2.07666 2.2631C2.07666 2.4461 2.14767 2.62196 2.27475 2.75365C2.40182 2.88534 2.57504 2.96258 2.75792 2.9691H6.31717ZM11.9823 8.53627C12.0636 8.58455 12.1535 8.61635 12.2471 8.62983C12.3406 8.64331 12.4359 8.63822 12.5275 8.61485C12.619 8.59147 12.7051 8.55027 12.7808 8.49361C12.8564 8.43694 12.9201 8.36592 12.9683 8.28461L16.3208 2.64374C16.3857 2.53468 16.4205 2.4104 16.4218 2.28351C16.4231 2.15662 16.3908 2.03165 16.3282 1.92128C16.2656 1.81091 16.1749 1.71909 16.0653 1.65512C15.9557 1.59116 15.8311 1.55734 15.7042 1.55709H8.99739C8.87034 1.55702 8.74554 1.59061 8.6357 1.65444C8.52585 1.71828 8.43488 1.81008 8.37205 1.9205C8.30921 2.03092 8.27675 2.15602 8.27798 2.28306C8.2792 2.4101 8.31406 2.53455 8.37902 2.64374L11.7315 8.2855C11.7931 8.38883 11.8797 8.47505 11.9832 8.53627H11.9823ZM6.31717 7.20605C6.41282 7.21088 6.50845 7.19621 6.59826 7.16293C6.68807 7.12965 6.77017 7.07846 6.83958 7.01247C6.90898 6.94648 6.96425 6.86706 7.00201 6.77905C7.03978 6.69103 7.05925 6.59626 7.05925 6.50049C7.05925 6.40472 7.03978 6.30994 7.00201 6.22193C6.96425 6.13392 6.90898 6.0545 6.83958 5.98851C6.77017 5.92252 6.68807 5.87133 6.59826 5.83805C6.50845 5.80477 6.41282 5.7901 6.31717 5.79493H2.75792C2.57696 5.80407 2.40642 5.88239 2.28157 6.01371C2.15671 6.14502 2.08709 6.31929 2.08709 6.50049C2.08709 6.68168 2.15671 6.85595 2.28157 6.98727C2.40642 7.11859 2.57696 7.19691 2.75792 7.20605H6.31717ZM15.5505 11.4439C15.7334 11.4374 15.9066 11.3601 16.0337 11.2284C16.1608 11.0967 16.2318 10.9209 16.2318 10.7379C16.2318 10.5549 16.1608 10.379 16.0337 10.2473C15.9066 10.1156 15.7334 10.0384 15.5505 10.0319H2.75792C2.57504 10.0384 2.40182 10.1156 2.27475 10.2473C2.14767 10.379 2.07666 10.5549 2.07666 10.7379C2.07666 10.9209 2.14767 11.0967 2.27475 11.2284C2.40182 11.3601 2.57504 11.4374 2.75792 11.4439H15.5505Z" fill="currentColor"/>
</svg>