<svg id="id" width="21" height="22" viewBox="0 0 21 22" fill="none" xmlns="http://www.w3.org/2000/svg">
<path d="M20.5 1H0.5V21H20.5V1ZM12.704 17.276C12.704 17.326 12.706 17.376 12.712 17.425C12.712 17.425 8.265 17.439 8.27 17.401C8.27387 17.3731 8.27621 17.3451 8.277 17.317V15.656C7.904 15.699 7.572 15.696 7.28 15.648C6.988 15.598 6.759 15.52 6.593 15.416C6.42638 15.3112 6.27808 15.1798 6.154 15.027C6.04509 14.9019 5.95819 14.7592 5.897 14.605C5.85011 14.4736 5.80511 14.3416 5.762 14.209C5.73649 14.1281 5.70847 14.0481 5.678 13.969C5.57543 13.7904 5.43641 13.6354 5.27 13.514C5.12946 13.4097 4.99334 13.2996 4.862 13.184C4.772 13.1 4.762 13.021 4.832 12.944C5.336 12.657 5.905 13.02 6.54 14.034C6.882 14.597 7.481 14.763 8.338 14.531C8.433 14.09 8.643 13.688 8.942 13.373C7.774 13.142 6.907 12.668 6.343 11.951C5.779 11.235 5.497 10.363 5.497 9.338C5.497 8.378 5.774 7.547 6.328 6.841C6.106 6.124 6.136 5.369 6.418 4.576C6.711 4.553 7.038 4.616 7.401 4.766C7.764 4.914 8.018 5.041 8.164 5.146C8.31 5.251 8.438 5.347 8.549 5.436C9.124 5.259 9.77 5.171 10.491 5.171C11.211 5.171 11.863 5.259 12.448 5.435C12.578 5.336 12.725 5.231 12.886 5.121C13.047 5.011 13.294 4.893 13.626 4.766C13.959 4.639 14.266 4.586 14.548 4.608C14.82 5.391 14.855 6.135 14.653 6.841C15.218 7.546 15.5 8.379 15.5 9.338C15.5 10.363 15.213 11.238 14.639 11.96C14.065 12.682 13.198 13.153 12.039 13.373C12.473 13.848 12.689 14.421 12.689 15.093V17.226C12.6907 17.2435 12.6958 17.2605 12.704 17.276Z" fill="currentColor"/>
</svg>
