<svg id="id" width="24" height="24" viewBox="0 0 24 24" fill="none" xmlns="http://www.w3.org/2000/svg">
<path d="M21.6965 13.8747V17.625H10.3841V23.25L1.99772 15.1418C1.89293 15.0397 1.82086 14.9087 1.79064 14.7655C1.76042 14.6224 1.77342 14.4734 1.82799 14.3377C1.88256 14.2019 1.97625 14.0854 2.09715 14.003C2.21805 13.9205 2.36071 13.8759 2.50704 13.8747H21.6954H21.6965ZM13.6169 0.75L22.0033 8.85818C22.1081 8.96038 22.1802 9.09144 22.2104 9.23471C22.2406 9.37798 22.2275 9.52699 22.1728 9.66281C22.1181 9.79862 22.0243 9.91511 21.9032 9.99747C21.7822 10.0798 21.6394 10.1243 21.4929 10.1253H2.30454V6.375H13.6159V0.75H13.6169Z" fill="currentColor"/>
</svg>
