<svg id="id" width="21" height="22" viewBox="0 0 21 22" fill="none" xmlns="http://www.w3.org/2000/svg">
<path d="M0.5 21V1H20.5V21H0.5ZM16.045 6.763L17.116 5.736V5.513H13.402L10.755 12.116L7.745 5.509H3.849V5.736L5.103 7.25C5.16423 7.30393 5.21162 7.37176 5.2412 7.4478C5.27078 7.52384 5.28169 7.60587 5.273 7.687V13.625C5.29087 13.7309 5.28352 13.8395 5.25155 13.942C5.21958 14.0445 5.16389 14.138 5.089 14.215L3.679 15.924V16.152H7.688V15.924L6.277 14.214C6.20129 14.1372 6.14417 14.0441 6.11002 13.9419C6.07587 13.8396 6.0656 13.7309 6.08 13.624V8.492L9.594 16.152H10L13.018 8.492V14.603C13.018 14.764 13.018 14.795 12.911 14.903L11.826 15.956V16.175H17.094V15.947L16.044 14.92C15.9983 14.8862 15.9628 14.8403 15.9416 14.7875C15.9204 14.7347 15.9143 14.6771 15.924 14.621V7.062C15.9152 7.00597 15.9218 6.94862 15.9429 6.896C15.964 6.84337 15.9989 6.79742 16.044 6.763H16.045Z" fill="currentColor"/>
</svg>
