<svg id="id" width="20" height="20" viewBox="0 0 20 20" fill="currentColor" xmlns="http://www.w3.org/2000/svg">
<path d="M17.2067 3.09C17.3997 3.09008 17.5861 3.16053 17.7309 3.28816C17.8757 3.41579 17.969 3.59184 17.9933 3.78333L18 3.88333V15.7833C17.9999 15.9764 17.9295 16.1627 17.8018 16.3075C17.6742 16.4524 17.4982 16.5457 17.3067 16.57L17.2067 16.5767H2.92666C2.73364 16.5766 2.54726 16.5061 2.40245 16.3785C2.25764 16.2509 2.16433 16.0748 2.14 15.8833L2.13333 15.7833V3.88333C2.13341 3.6903 2.20387 3.50393 2.3315 3.35912C2.45913 3.21431 2.63518 3.12099 2.82666 3.09666L2.92666 3.09H17.2067ZM17.2067 3.88333H2.92666V15.7833H17.2067V3.88333ZM13.84 10.5607V12.0153H9.438V14.1967L6.17333 11.052C6.13218 11.0126 6.10378 10.9617 6.0918 10.906C6.07982 10.8502 6.08481 10.7922 6.10611 10.7393C6.12741 10.6865 6.16406 10.6412 6.21134 10.6094C6.25861 10.5775 6.31433 10.5605 6.37133 10.5607H13.84ZM10.6953 5.47L13.9593 8.61466C14.0005 8.6541 14.0289 8.70496 14.0409 8.76069C14.0528 8.81641 14.0479 8.87445 14.0266 8.92731C14.0052 8.98018 13.9686 9.02546 13.9213 9.0573C13.8741 9.08915 13.8183 9.10611 13.7613 9.106H6.29333V7.65133H10.6953V5.47Z" fill="currentColor"/>
</svg>
