<svg id="id" width="21" height="22" viewBox="0 0 21 22" fill="none" xmlns="http://www.w3.org/2000/svg">
<path d="M20.5 1H0.5V21H20.5V1ZM12.407 6.61L12.717 6.57H12.728V6.56C13.469 6.52 14.19 6.809 14.699 7.35C15.1535 7.28126 15.5931 7.13586 15.999 6.92L16.309 6.75C16.159 7.21 15.879 7.62 15.499 7.93C15.409 8.01 15.319 8.08 15.219 8.13C15.709 8.07 16.188 7.939 16.639 7.74C16.409 8.108 16.121 8.439 15.789 8.72L15.389 9.05C15.409 9.59 15.369 10.14 15.269 10.67C14.639 13.5 12.979 15.42 10.357 16.24C9.197 16.57 7.967 16.61 6.787 16.36C6.287 16.24 5.797 16.08 5.317 15.88C5.067 15.78 4.837 15.66 4.607 15.52L4.387 15.39C4.651 15.43 4.919 15.44 5.187 15.42C5.302 15.402 5.414 15.394 5.522 15.386C5.658 15.376 5.789 15.367 5.916 15.339C6.44044 15.2308 6.94594 15.0455 7.416 14.789C7.66 14.671 7.889 14.523 8.096 14.349C7.846 14.349 7.596 14.309 7.356 14.219C6.606 13.959 6.016 13.369 5.766 12.609C6.016 12.639 6.726 12.699 6.886 12.559C6.586 12.519 6.306 12.409 6.066 12.229C5.69358 12.008 5.38751 11.6908 5.17989 11.3108C4.97227 10.9307 4.87076 10.5018 4.886 10.069L5.156 10.169C5.326 10.239 5.504 10.289 5.686 10.319C5.79474 10.3586 5.912 10.369 6.026 10.349C5.96247 10.2852 5.89354 10.227 5.82 10.175C5.72656 10.1101 5.64128 10.0343 5.566 9.949C5.29919 9.6382 5.10943 9.26886 5.01213 8.87097C4.91483 8.47308 4.91273 8.05785 5.006 7.659C5.068 7.432 5.159 7.214 5.276 7.009C5.344 7.106 5.421 7.196 5.506 7.279C5.724 7.549 5.973 7.795 6.246 8.009C7.136 8.739 8.185 9.249 9.307 9.499C9.667 9.599 10.047 9.649 10.427 9.649C10.327 9.269 10.327 8.859 10.427 8.469C10.5176 8.09701 10.6929 7.75096 10.9392 7.45783C11.1855 7.16469 11.4962 6.93238 11.847 6.779C12.027 6.709 12.217 6.649 12.407 6.609V6.61Z" fill="currentColor"/>
</svg>
